/* XPM */
static char *c60a62b0bc364a74b97cc85f6c2a7392[] = {
/* columns rows colors chars-per-pixel */
"16 16 24 1 ",
"  c #F6486E",
". c #E64D77",
"X c #6C79BE",
"o c #697AC0",
"O c #687AC1",
"+ c #B95D91",
"@ c #B85E93",
"# c #A2659F",
"$ c #A2669F",
"% c #8670AF",
"& c #8570B0",
"* c #A066A0",
"= c #A166A0",
"- c #D15583",
"; c #D15584",
": c #3F89D8",
"> c #3F89D9",
", c #308EE1",
"< c #5781CA",
"1 c #5781CB",
"2 c #5481CC",
"3 c #5880CA",
"4 c #4089D8",
"5 c None",
/* pixels */
"555555o5$5555555",
"555551X&*+555555",
"5555:2X&*+-.5555",
"555,42X55+-. 555",
"555,4255555. 555",
"555,42X%55555555",
"555552X&*+555555",
"555542X&*+;55555",
"555,42X55+;55555",
"555,425555555555",
"555,42X&55555555",
"5555:2X&*5555555",
"555551X&*+-55555",
"555553o5*+-. 555",
"555551o5$+-. 555",
"555555555555 555"
};
