/* XPM */
static char *_821f3f3b9ac46e4e1b270aaf710a23d[] = {
/* columns rows colors chars-per-pixel */
"64 64 63 1 ",
"  c #DF4F7B",
". c #DB517D",
"X c #FB466B",
"o c #F8476D",
"O c #F5486E",
"+ c #F5486F",
"@ c #ED4B73",
"# c #EA4C75",
"$ c #E04F7B",
"% c #E54D78",
"& c #E44E78",
"* c #F14971",
"= c #6D78BD",
"- c #6D78BE",
"; c #7A74B6",
": c #7376BA",
"> c #7476BA",
", c #5C7EC7",
"< c #677AC1",
"1 c #677BC1",
"2 c #617CC4",
"3 c #BF5B8D",
"4 c #B35F95",
"5 c #B95D91",
"6 c #B95E91",
"7 c #B95D92",
"8 c #A0669F",
"9 c #A1669F",
"0 c #A6649C",
"q c #AD6298",
"w c #B26095",
"e c #B36095",
"r c #866FAF",
"t c #8D6DAB",
"y c #936BA7",
"u c #946BA6",
"i c #9968A4",
"p c #9868A5",
"a c #8072B2",
"s c #A066A0",
"d c #CB5787",
"f c #C5598A",
"g c #C4598B",
"h c #D55381",
"j c #D05583",
"k c #D05584",
"l c #328DDF",
"z c #368CDE",
"x c #3A8ADB",
"c c #3D89D9",
"v c #3A8BDC",
"b c #2F8EE2",
"n c #2F8FE2",
"m c #2C90E4",
"M c #5781CA",
"N c #5680CB",
"B c #5681CB",
"V c #5781CB",
"C c #5182CD",
"Z c #4786D4",
"A c #4B84D1",
"S c #4288D6",
"D c None",
/* pixels */
"DDDDDDDDDDDDDDDDDDDDDDD,21DDDDDDDDs0qDDDDDDDDDDDDDDDDDDDDDDDDDDD",
"DDDDDDDDDDDDDDDDDDDDDDV,21-DDDDDDis0qeDDDDDDDDDDDDDDDDDDDDDDDDDD",
"DDDDDDDDDDDDDDDDDDDDDDV,21-DDDDDDis0qeDDDDDDDDDDDDDDDDDDDDDDDDDD",
"DDDDDDDDDDDDDDDDDDDDDDV,21-DDDDDDis0qeDDDDDDDDDDDDDDDDDDDDDDDDDD",
"DDDDDDDDDDDDDDDDDDDDDDM,21-D;artyis0q4DDDDDDDDDDDDDDDDDDDDDDDDDD",
"DDDDDDDDDDDDDDDDDDDDDDM,21-:;artyis0q463fDDDDDDDDDDDDDDDDDDDDDDD",
"DDDDDDDDDDDDDDDDDDDDDDM,21->;artyis0q463fdjDDDDDDDDDDDDDDDDDDDDD",
"DDDDDDDDDDDDDDDDDDDDACN,21->;artyis0q463fdjh.DDDDDDDDDDDDDDDDDDD",
"DDDDDDDDDDDDDDDDDDSZACM,,1-:;artyis0q463fdjh.$%DDDDDDDDDDDDDDDDD",
"DDDDDDDDDDDDDDDDvcSZACM,2-=:;artyis0q463fdjh.$%#@DDDDDDDDDDDDDDD",
"DDDDDDDDDDDDDDDzvcSZACN,2--:;artyis0q463fdjh.$%#@*+DDDDDDDDDDDDD",
"DDDDDDDDDDDDDblzvcSZACNM22-:;artyis0q463fdjh.$%#@*+oDDDDDDDDDDDD",
"DDDDDDDDDDDDmblzxcSZACM,22=:;arDDD90q463fdjh.$%#@*+oXDDDDDDDDDDD",
"DDDDDDDDDDDDmblzxcSAACN,2-=:;DDDDDDDq463fdjh.$%#@*+oXDDDDDDDDDDD",
"DDDDDDDDDDDDmblzxcSZACM,21=DDDDDDDDDDD63fdjh.$%#@*+oXDDDDDDDDDDD",
"DDDDDDDDDDDDmblzvcSZACMM2DDDDDDDDDDDDDDDfdjh.$%#@*+oXDDDDDDDDDDD",
"DDDDDDDDDDDDmblzxcSZACNDDDDDDDDDDDDDDDDDDDjh.$%#@*+oXDDDDDDDDDDD",
"DDDDDDDDDDDDmblzxcSZACNDDDDDDDDDDDDDDDDDDDDD. %#@*+oXDDDDDDDDDDD",
"DDDDDDDDDDDDmblzxcSZACN,2DDDDDDDDDDDDDDDDDDDDD%#@*+oXDDDDDDDDDDD",
"DDDDDDDDDDDDmblzxcSZACN,21-DDDDDDDDDDDDDDDDDDDDD@*+oXDDDDDDDDDDD",
"DDDDDDDDDDDDmblzxcSZACNM21->;DDDDDDDDDDDDDDDDDDDD*+oXDDDDDDDDDDD",
"DDDDDDDDDDDDmblzxcSZACM,21=:;arDDDDDDDDDDDDDDDDDDDDoXDDDDDDDDDDD",
"DDDDDDDDDDDDDblzxcSZACM,21-:;artuDDDDDDDDDDDDDDDDDDDDDDDDDDDDDDD",
"DDDDDDDDDDDDDDDzxcSZACM,21-:;artyisDDDDDDDDDDDDDDDDDDDDDDDDDDDDD",
"DDDDDDDDDDDDDDDDDcSZACM,21->;artyis0qDDDDDDDDDDDDDDDDDDDDDDDDDDD",
"DDDDDDDDDDDDDDDDDDDZACM,21->;artyis0qe6DDDDDDDDDDDDDDDDDDDDDDDDD",
"DDDDDDDDDDDDDDDDDDDDDCMM21->;artyis0q463fDDDDDDDDDDDDDDDDDDDDDDD",
"DDDDDDDDDDDDDDDDDDDDDDM221-:;artyis0q463fdkDDDDDDDDDDDDDDDDDDDDD",
"DDDDDDDDDDDDDDDDDDDDACNM21=:;artyis0q463fdjhDDDDDDDDDDDDDDDDDDDD",
"DDDDDDDDDDDDDDDDDDSZACN,21=:;artyis0q463fdjhDDDDDDDDDDDDDDDDDDDD",
"DDDDDDDDDDDDDDDDvcSZACN,21-:;artyis0q463fdjhDDDDDDDDDDDDDDDDDDDD",
"DDDDDDDDDDDDDDlzxcSZACN,21=:;artyis0q463fdjhDDDDDDDDDDDDDDDDDDDD",
"DDDDDDDDDDDDDblzvcSZACM,M1-:;artyis0q463fdjhDDDDDDDDDDDDDDDDDDDD",
"DDDDDDDDDDDDmblzvcSZACM,2-=:;arDDDs0q463fdjhDDDDDDDDDDDDDDDDDDDD",
"DDDDDDDDDDDDmnlzxcSZACVM2--:;DDDDDDDq463fdjhDDDDDDDDDDDDDDDDDDDD",
"DDDDDDDDDDDDmnlzxcSAACN2M--DDDDDDDDDDD63fdjhDDDDDDDDDDDDDDDDDDDD",
"DDDDDDDDDDDDmnlzxcSZACNM2DDDDDDDDDDDDDDDfdkhDDDDDDDDDDDDDDDDDDDD",
"DDDDDDDDDDDDmnlzxcSZACNDDDDDDDDDDDDDDDDDDDjhDDDDDDDDDDDDDDDDDDDD",
"DDDDDDDDDDDDmnlzxcSZACN2DDDDDDDDDDDDDDDDDDDDDDDDDDDDDDDDDDDDDDDD",
"DDDDDDDDDDDDmnlzxcSZACNM21DDDDDDDDDDDDDDDDDDDDDDDDDDDDDDDDDDDDDD",
"DDDDDDDDDDDDmnlzxcSZACNM2-=DDDDDDDDDDDDDDDDDDDDDDDDDDDDDDDDDDDDD",
"DDDDDDDDDDDDmnlzxcSZACM,22==;DDDDDDDDDDDDDDDDDDDDDDDDDDDDDDDDDDD",
"DDDDDDDDDDDDmnlzxcSZACM,2-=:;arDDDDDDDDDDDDDDDDDDDDDDDDDDDDDDDDD",
"DDDDDDDDDDDDDnlzxcSZACM,,-=:;artyDDDDDDDDDDDDDDDDDDDDDDDDDDDDDDD",
"DDDDDDDDDDDDDDDzvcSZACN,21-:;artyisDDDDDDDDDDDDDDDDDDDDDDDDDDDDD",
"DDDDDDDDDDDDDDDDDcSZACN,21=:;artyis0qDDDDDDDDDDDDDDDDDDDDDDDDDDD",
"DDDDDDDDDDDDDDDDDDDZACNM21-:;artyis0q46DDDDDDDDDDDDDDDDDDDDDDDDD",
"DDDDDDDDDDDDDDDDDDDDDCN221-:;artyis0q463fDDDDDDDDDDDDDDDDDDDDDDD",
"DDDDDDDDDDDDDDDDDDDDDDM,21->;artyps0q463fdjDDDDDDDDDDDDDDDDDDDDD",
"DDDDDDDDDDDDDDDDDDDDDDV,21-:;artyps0q463fdjh.DDDDDDDDDDDDDDDDDDD",
"DDDDDDDDDDDDDDDDDDDDDDV,21-:;artyis0q463fdjh.$%DDDDDDDDDDDDDDDDD",
"DDDDDDDDDDDDDDDDDDDDDDV,21-D;artyis0q463fdjh.$%#@DDDDDDDDDDDDDDD",
"DDDDDDDDDDDDDDDDDDDDDDV,21-DDDrtyis0q463fdjh.$%#@*+DDDDDDDDDDDDD",
"DDDDDDDDDDDDDDDDDDDDDDV,21-DDDDDyis0q463fdjh.$%#@**XDDDDDDDDDDDD",
"DDDDDDDDDDDDDDDDDDDDDDV,21-DDDDDDis0qe63fdjh.$%#@*++XDDDDDDDDDDD",
"DDDDDDDDDDDDDDDDDDDDDDV,21-DDDDDDis0qe6gfdjh.$%#@*+XXDDDDDDDDDDD",
"DDDDDDDDDDDDDDDDDDDDDDV,21-DDDDDDis0q463fdjh.$%#@*++XDDDDDDDDDDD",
"DDDDDDDDDDDDDDDDDDDDDDV,21-DDDDDDis0qeDDfdjh.$%#@*+XXDDDDDDDDDDD",
"DDDDDDDDDDDDDDDDDDDDDDM,21-DDDDDDis0qeDDDDjh.$%#@*++XDDDDDDDDDDD",
"DDDDDDDDDDDDDDDDDDDDDDV,21-DDDDDDis0qeDDDDDD.$%#@*+XXDDDDDDDDDDD",
"DDDDDDDDDDDDDDDDDDDDDDN,21-DDDDDDis0qeDDDDDDDD%#@*+XXDDDDDDDDDDD",
"DDDDDDDDDDDDDDDDDDDDDDDDDDDDDDDDDDDDDDDDDDDDDDDD@*++XDDDDDDDDDDD",
"DDDDDDDDDDDDDDDDDDDDDDDDDDDDDDDDDDDDDDDDDDDDDDDDDD+XXDDDDDDDDDDD",
"DDDDDDDDDDDDDDDDDDDDDDDDDDDDDDDDDDDDDDDDDDDDDDDDDDD+XDDDDDDDDDDD"
};
