/* XPM */
static char *_7270fd069de42e2b64c0addf4ce7530[] = {
/* columns rows colors chars-per-pixel */
"32 32 39 1 ",
"  c #D8527F",
". c #FA466C",
"X c #FA476C",
"o c #EC4B74",
"O c #EC4C74",
"+ c #EC4C75",
"@ c #E34E79",
"# c #E34F79",
"$ c #F34970",
"% c #6D79BE",
"& c #6C79BF",
"* c #7A74B6",
"= c #617DC5",
"- c #627DC4",
"; c #627DC5",
": c #B85E92",
"> c #B85E93",
", c #AB629A",
"< c #AB639A",
"1 c #AC6299",
"2 c #AC629A",
"3 c #876FAF",
"4 c #9E67A1",
"5 c #9F67A1",
"6 c #946BA7",
"7 c #936BA8",
"8 c #CF5584",
"9 c #CF5685",
"0 c #C45A8B",
"q c #338DDF",
"w c #3B8ADB",
"e c #2D8FE3",
"r c #5780CA",
"t c #5880CA",
"y c #4387D6",
"u c #4D84D0",
"i c #4D85D0",
"p c #4388D6",
"a c None",
/* pixels */
"aaaaaaaaaat;aaaa41aaaaaaaaaaaaaa",
"aaaaaaaaaat;%aaa41aaaaaaaaaaaaaa",
"aaaaaaaaaat;%*374,:aaaaaaaaaaaaa",
"aaaaaaaaaar;%*374,:08aaaaaaaaaaa",
"aaaaaaaapur;%*374,:098#aaaaaaaaa",
"aaaaaaqwyur;%*374,:08 #o$aaaaaaa",
"aaaaaeqwyur;%*aaa1:08 #o$Xaaaaaa",
"aaaaaeqwyur;aaaaaaa08 #o$Xaaaaaa",
"aaaaaeqwyuraaaaaaaaaa #o$Xaaaaaa",
"aaaaaeqwyur;aaaaaaaaaaa+$Xaaaaaa",
"aaaaaeqwyur;%*aaaaaaaaaaaXaaaaaa",
"aaaaaaqwyur;%*36aaaaaaaaaaaaaaaa",
"aaaaaaaayur;%*3751aaaaaaaaaaaaaa",
"aaaaaaaaaar;%*3751:0aaaaaaaaaaaa",
"aaaaaaaaaur;%*3752:08aaaaaaaaaaa",
"aaaaaaawyur;%*3741:08aaaaaaaaaaa",
"aaaaaeqwyut;%*3a52>09aaaaaaaaaaa",
"aaaaaeqwyut;%aaaaa:09aaaaaaaaaaa",
"aaaaaeqwyutaaaaaaaaa9aaaaaaaaaaa",
"aaaaaeqwyutaaaaaaaaaaaaaaaaaaaaa",
"aaaaaeqwyut;%aaaaaaaaaaaaaaaaaaa",
"aaaaaeqwyut;%*3aaaaaaaaaaaaaaaaa",
"aaaaaaawput;%*364aaaaaaaaaaaaaaa",
"aaaaaaaaaut;-33641>aaaaaaaaaaaaa",
"aaaaaaaaaat-%*364,:09aaaaaaaaaaa",
"aaaaaaaaaat-%*364,:09 #aaaaaaaaa",
"aaaaaaaaaat-%aa64,:09 #o$aaaaaaa",
"aaaaaaaaaat--aaa4,:09 #o$.aaaaaa",
"aaaaaaaaaat--aaa4,>09 #o$.aaaaaa",
"aaaaaaaaaat-%aaa41aaa #o$.aaaaaa",
"aaaaaaaaaaa-aaaaa1aaaaa+$.aaaaaa",
"aaaaaaaaaaaaaaaaaaaaaaaaa.aaaaaa"
};
